<?xml version="1.0" encoding="UTF-8" standalone="no"?><!DOCTYPE svg PUBLIC "-//W3C//DTD SVG 1.1//EN" "http://www.w3.org/Graphics/SVG/1.1/DTD/svg11.dtd"><svg width="100%" height="100%" viewBox="0 0 3000 3000" version="1.1" xmlns="http://www.w3.org/2000/svg" xmlns:xlink="http://www.w3.org/1999/xlink" xml:space="preserve" xmlns:serif="http://www.serif.com/" style="fill-rule:evenodd;clip-rule:evenodd;stroke-linejoin:round;stroke-miterlimit:2;"><path d="M1967.269,513.704c-197.072,1.571 -443.996,6.523 -573.644,173.386c-33.071,42.566 -54.953,89.044 -76.467,138.111c-70.86,161.601 -129.831,331.829 -197.478,495.437c-75.913,183.603 -157.595,364.861 -240.19,545.462c85.157,-113.924 178.695,-216.113 296.563,-296.861c13.237,-9.067 38.393,-20.416 48.795,-29.438c7.08,-6.143 23.045,-28.1 30.073,-36.984c93.065,-117.621 167.284,-259.005 235.923,-392.169c92.502,-179.455 223.234,-495.739 414.158,-580.86" style="fill:#fff;fill-rule:nonzero;"/><path d="M1967.414,513.687c-142.065,5.834 -237.937,152.6 -308.779,268.346c-100.305,163.889 -173.774,345.848 -269.149,513.175c-49.177,86.279 -110.682,175.14 -174.301,251.206c24.034,-11.295 54.031,-25.924 78.531,-36.285c58.341,-24.666 119.197,-43.438 181.484,-55.447c106.443,-215.166 202.522,-435.503 307.616,-651.288c45.639,-93.704 91.408,-189.453 161.707,-267.453" style="fill:#fff;fill-rule:nonzero;"/><path d="M2230.431,1805.826c0.011,0.026 2.137,6.458 2.158,6.475c30.217,25.901 179.013,11.901 194.255,10.792c14.584,-1.062 47.446,-3.121 38.851,-23.742c-189.254,-422.296 -339.036,-847.38 -490.181,-1284.661c-0.063,-0.181 -0.311,-0.209 -0.43,-0.06c-72.494,90.754 -78.775,90.119 -179.293,286.82c-0.022,0.041 -0.026,0.093 -0.011,0.138c126.136,381.789 289.397,669.179 434.65,1004.239" style="fill:#fff;fill-rule:nonzero;"/><path d="M1696.332,1512.802c-187.754,11.075 -389.179,76.858 -532.92,196.815c-171.849,143.41 -289.529,361.595 -481.06,477.844c-99.851,60.603 -260.332,97.974 -344.863,-7.442c-94.907,-118.357 44.726,-263.565 135.817,-321.279c22.724,-14.399 128.662,-89.394 174.499,-113.272c0.503,-4.129 -62.181,26.783 -64.288,27.552c-33.645,12.264 -138.931,59.369 -171.439,75.004c-75.358,36.246 -124.489,84.225 -166.846,159.192c-68.697,121.591 -1.53,244.913 157.662,287.772c267.371,71.984 534.212,-163.785 740.371,-361.88c208.749,-200.586 270.051,-328.239 469.323,-404.644l83.743,-15.661Z" style="fill:#fff;fill-rule:nonzero;"/><path d="M102.828,2038.118c-69.047,216.463 106.627,368.53 302.732,403.423c285.816,50.854 549.977,-87.484 734.351,-296.187c82.487,-93.374 155.24,-217.773 212.64,-327.872c-221.602,44.32 -382.767,290.252 -586.398,405.628c-109.754,62.188 -243.814,100.575 -369.497,68.637c-151.079,-38.391 -219.543,-176.843 -133.054,-309.021c116.719,-178.376 454.311,-194.626 525.941,-375.495c1.69,-4.265 5.312,-11.856 3.889,-16.229c-92.202,107.244 -242.262,128.29 -369.428,173.729c-138.251,49.401 -273.619,124.297 -321.177,273.388" style="fill:#fff;fill-rule:nonzero;"/><path d="M2910.098,2476.18c-318.285,-22.896 -512.952,-305.594 -623.529,-575.682c-96.869,-5.538 -192.882,-20.876 -288.421,-36.779c77.216,209.085 182.893,422.706 386.628,533.135c143.999,78.052 356.109,101.606 517.591,83.866c3.341,-0.367 14.425,-4.196 7.731,-4.541" style="fill:#fff;fill-rule:nonzero;"/><path d="M2488.813,1876.856c-67.273,20.427 -137.876,25.622 -208.049,22.92c88.369,208.168 206.014,414.862 417.431,517.193c66.822,32.346 112.776,53.696 214.289,59.826c-18.772,-15.372 -43.731,-29.738 -62.684,-44.901c-168.853,-135.083 -275.298,-351.561 -359.26,-546.785c-1.137,-2.646 -1.861,-5.355 -1.727,-8.254" style="fill:#fff;fill-rule:nonzero;"/><path d="M1795.732,801.445l-123.721,264.42c64.437,155.65 133.445,309.043 202.122,462.528c-91.073,-13.369 -186.744,-27.621 -276.634,-0.585c-144.781,43.546 -269.758,165.052 -370.479,273.261c-53.692,57.685 -103.234,119.299 -159.783,174.355l60.592,-47.789c230.464,-166.837 567.901,-174.523 841.028,-144.131c97.574,10.857 193.99,30.481 291.793,39.589c-29.997,-65.84 -62.013,-130.343 -93.376,-195.537c-64.385,-133.833 -135.754,-263.995 -197.409,-399.393c-62.304,-136.831 -117.768,-276.533 -170.612,-417.297" style="fill:#fff;fill-rule:nonzero;"/></svg>