<?xml version="1.0" encoding="UTF-8" standalone="no"?><!DOCTYPE svg PUBLIC "-//W3C//DTD SVG 1.1//EN" "http://www.w3.org/Graphics/SVG/1.1/DTD/svg11.dtd"><svg width="100%" height="100%" viewBox="0 0 1024 1024" version="1.1" xmlns="http://www.w3.org/2000/svg" xmlns:xlink="http://www.w3.org/1999/xlink" xml:space="preserve" xmlns:serif="http://www.serif.com/" style="fill-rule:evenodd;clip-rule:evenodd;stroke-linejoin:round;stroke-miterlimit:2;"><path d="M669.611,179.319c-66.473,0.53 -149.761,2.2 -193.492,58.484c-11.155,14.358 -18.536,30.035 -25.793,46.585c-23.901,54.508 -43.793,111.927 -66.61,167.113c-25.606,61.93 -53.157,123.069 -81.017,183.986c28.724,-38.427 60.275,-72.896 100.032,-100.132c4.465,-3.058 12.95,-6.886 16.459,-9.93c2.388,-2.072 7.773,-9.478 10.144,-12.475c31.391,-39.674 56.425,-87.363 79.578,-132.28c31.201,-60.531 75.297,-167.214 139.697,-195.926" style="fill:#134869;fill-rule:nonzero;"/><path d="M669.66,179.313c-47.919,1.968 -80.257,51.473 -104.152,90.514c-33.833,55.28 -58.615,116.656 -90.785,173.095c-16.587,29.102 -37.333,59.075 -58.792,84.733c8.107,-3.81 18.225,-8.744 26.489,-12.239c19.679,-8.32 40.206,-14.652 61.215,-18.702c35.904,-72.576 68.311,-146.897 103.76,-219.682c15.394,-31.607 30.832,-63.903 54.544,-90.213" style="fill:#192844;fill-rule:nonzero;"/><path d="M758.377,615.156c0.004,0.009 0.721,2.178 0.728,2.184c10.192,8.736 60.382,4.014 65.523,3.64c4.919,-0.358 16.004,-1.053 13.105,-8.008c-63.836,-142.442 -114.358,-285.824 -165.34,-433.32c-0.021,-0.061 -0.105,-0.071 -0.145,-0.02c-24.452,30.612 -26.571,30.398 -60.476,96.745c-0.007,0.014 -0.009,0.031 -0.004,0.047c42.546,128.779 97.615,225.716 146.609,338.733" style="fill:#69cdce;fill-rule:nonzero;"/><path d="M406.865,643.128c-4.806,4.848 -9.857,9.834 -15.192,14.961c-69.538,66.818 -159.545,146.344 -249.73,122.063c-53.696,-14.457 -76.352,-56.053 -53.18,-97.066c14.287,-25.287 30.859,-41.47 56.278,-53.696c10.965,-5.274 46.478,-21.162 57.827,-25.299c0.711,-0.259 21.854,-10.686 21.684,-9.293c-15.461,8.054 -51.194,33.35 -58.859,38.207c-30.725,19.467 -77.824,68.446 -45.811,108.368c28.513,35.557 82.643,22.952 116.324,2.51c64.604,-39.211 104.298,-112.806 162.263,-161.178c44.188,-36.876 104.537,-58.575 162.828,-64.959c25.387,-3.778 51.667,0.127 76.901,3.831c-23.165,-51.771 -46.442,-103.511 -68.177,-156.012l41.732,-89.19l1.187,3.178c17.824,47.48 36.533,94.602 57.548,140.756c20.796,45.67 44.869,89.574 66.587,134.717c10.579,21.99 21.378,43.747 31.496,65.955c-32.989,-3.072 -65.511,-9.692 -98.423,-13.354c-84.358,-9.387 -186.905,-8.005 -263.282,35.501Z" style="fill:#134869;"/><path d="M40.729,693.509c-23.29,73.014 35.966,124.306 102.112,136.076c96.407,17.153 185.509,-29.509 247.699,-99.905c27.823,-31.495 52.363,-73.456 71.724,-110.592c-74.747,14.949 -129.109,97.903 -197.794,136.82c-37.02,20.976 -82.239,33.924 -124.633,23.151c-50.959,-12.95 -74.053,-59.65 -44.88,-104.234c39.37,-60.167 153.241,-65.648 177.402,-126.656c0.57,-1.439 1.792,-3.999 1.312,-5.474c-31.1,36.174 -81.716,43.273 -124.609,58.599c-46.633,16.663 -92.293,41.926 -108.334,92.215" style="fill:#192844;fill-rule:nonzero;"/><path d="M987.631,841.269c-107.359,-7.723 -173.02,-103.078 -210.318,-194.179c-32.674,-1.868 -65.06,-7.042 -97.285,-12.406c26.045,70.525 61.691,142.58 130.411,179.828c48.571,26.327 120.117,34.272 174.585,28.288c1.127,-0.124 4.865,-1.415 2.608,-1.532" style="fill:#134869;fill-rule:nonzero;"/><path d="M845.53,639.115c-22.691,6.89 -46.506,8.642 -70.176,7.731c29.807,70.216 69.489,139.934 140.801,174.451c22.539,10.91 38.04,18.112 72.28,20.18c-6.332,-5.185 -14.751,-10.031 -21.144,-15.145c-56.955,-45.564 -92.859,-118.583 -121.18,-184.432c-0.384,-0.893 -0.628,-1.806 -0.582,-2.784" style="fill:#69cdce;fill-rule:nonzero;"/></svg>